<svg version="1.1" id="Layer_1" xmlns="http://www.w3.org/2000/svg" xmlns:xlink="http://www.w3.org/1999/xlink" x="0px" y="0px"
	 width="100%" viewBox="0 0 1187 1537" enable-background="new 0 0 1187 1537" xml:space="preserve">
<path fill="#000000" opacity="1.000000" stroke="none" 
	d="
M580.000000,1538.000000 
	C386.666656,1538.000000 193.833328,1538.000000 1.000000,1538.000000 
	C1.000000,1025.666626 1.000000,513.333313 1.000000,1.000000 
	C396.666656,1.000000 792.333313,1.000000 1188.000000,1.000000 
	C1188.000000,513.333313 1188.000000,1025.666626 1188.000000,1538.000000 
	C985.500000,1538.000000 783.000000,1538.000000 580.000000,1538.000000 
M613.398926,221.006119 
	C602.069092,226.453583 590.684509,231.792877 579.470398,237.469009 
	C577.851196,238.288605 576.534058,240.566818 575.955017,242.441223 
	C572.001892,255.238098 568.400269,268.143341 564.461365,280.944763 
	C559.062805,298.490204 553.373596,315.946228 547.984863,333.494598 
	C544.119812,346.081085 540.697754,358.804077 536.796936,371.378937 
	C532.204224,386.184296 527.213928,400.865906 522.569763,415.655731 
	C517.920166,430.462585 513.457581,445.328491 508.965942,460.184509 
	C506.250946,469.164368 503.636414,478.174530 500.768982,487.873840 
	C504.571503,487.873840 507.533630,488.082947 510.458130,487.839813 
	C529.075745,486.291931 547.682495,484.613953 566.297913,483.038879 
	C582.106995,481.701233 597.921265,480.424347 613.736267,479.157593 
	C631.384094,477.744019 649.036072,476.381714 666.684814,474.979065 
	C681.350037,473.813568 696.011597,472.602661 710.677612,471.447083 
	C725.716858,470.262085 740.750610,468.970734 755.807251,468.069458 
	C759.332458,467.858429 761.114014,466.474182 762.785950,463.617157 
	C767.615173,455.364624 772.748413,447.290314 777.740234,439.132538 
	C782.660095,431.092529 787.661926,423.099976 792.432068,414.971741 
	C799.193970,403.449554 805.626892,391.732697 812.479614,380.265930 
	C818.723328,369.818054 825.426025,359.644745 831.691040,349.209045 
	C832.559937,347.761719 832.596558,345.364044 832.135742,343.642609 
	C829.274597,332.955566 826.051636,322.365784 823.158508,311.686920 
	C819.083679,296.646362 815.243896,281.542297 811.207092,266.491302 
	C806.309570,248.231277 801.353333,229.986710 796.341736,211.757645 
	C793.133606,200.087997 789.690430,188.482635 786.517700,176.803619 
	C783.740295,166.579819 781.046082,156.328156 778.612915,146.018524 
	C777.560608,141.559982 775.429688,141.236465 771.878845,143.087311 
	C766.025757,146.138153 760.161560,149.173676 754.224487,152.056030 
	C731.879395,162.904358 709.484985,173.651123 687.144531,184.508987 
	C671.645996,192.041565 656.187073,199.656281 640.746460,207.307190 
	C631.832764,211.724030 622.990723,216.285660 613.398926,221.006119 
M220.648315,894.029907 
	C209.099472,898.403137 200.384552,906.770020 194.337555,916.797913 
	C187.707169,927.793152 183.108002,940.115234 181.819870,953.242798 
	C181.111664,960.460205 179.898544,967.709351 180.084412,974.913940 
	C180.347702,985.119202 181.797714,995.288940 182.541748,1005.488403 
	C183.136185,1013.636902 183.751678,1021.805908 183.779572,1029.967773 
	C183.811508,1039.314087 184.153152,1048.822632 182.611053,1057.965576 
	C181.040298,1067.278442 177.342865,1076.232544 174.223526,1086.506592 
	C270.628601,1130.994629 367.464386,1175.681396 464.473236,1220.447998 
	C465.281494,1219.078491 465.851410,1218.278687 466.256073,1217.402466 
	C473.548920,1201.609863 485.034210,1189.132446 498.373901,1178.472290 
	C511.917847,1167.649048 526.484741,1158.102661 539.989441,1147.234009 
	C559.557129,1131.486084 576.830933,1113.813110 581.996521,1087.771973 
	C585.017090,1072.544434 581.522034,1058.646606 573.326721,1045.687866 
	C567.923157,1037.143433 560.298157,1031.020508 551.576843,1026.418335 
	C543.677063,1022.249634 535.590698,1018.006531 527.082336,1015.526428 
	C516.194214,1012.352722 504.824432,1010.780151 493.614868,1008.783264 
	C488.147430,1007.809204 482.560913,1007.524292 477.049530,1006.771606 
	C468.846130,1005.651428 460.646088,1004.488831 452.473541,1003.165466 
	C445.092041,1001.970215 437.794586,1000.115173 430.377686,999.315796 
	C421.768921,998.387878 420.536194,997.825256 418.374237,989.877075 
	C417.991974,988.471802 417.636047,987.059448 417.423035,986.243958 
	C423.129211,982.495728 429.804443,979.932251 433.790344,975.134583 
	C443.805359,963.079712 447.744751,948.914429 439.356659,934.476562 
	C435.624573,928.052734 436.632904,923.235596 439.212891,917.529785 
	C441.290833,912.934265 443.163727,912.160706 447.744843,914.315979 
	C452.005127,916.320251 456.291382,918.269287 460.930573,920.410828 
	C464.477020,912.837036 467.758331,905.829468 471.452850,897.939453 
	C467.477051,895.677979 463.623901,893.250061 459.566376,891.233276 
	C453.351501,888.144104 453.432098,888.330505 456.306976,882.234375 
	C463.011871,868.016724 462.026154,871.315430 450.817505,865.428711 
	C443.112244,861.381836 441.828522,861.946838 438.166138,869.497131 
	C437.660278,870.539978 437.222076,871.615784 436.710114,872.655396 
	C433.544586,879.083496 433.534729,879.095947 426.652130,876.277039 
	C424.212067,875.277649 421.624786,874.476746 419.430908,873.074707 
	C416.064453,870.923462 413.696991,872.717346 412.428467,875.159058 
	C409.940491,879.948303 408.008545,885.049866 406.146454,890.132141 
	C404.990326,893.287476 405.679504,895.750977 409.415985,897.133972 
	C413.884552,898.787842 418.120270,901.071045 422.984863,903.326477 
	C420.814880,908.023010 418.974762,912.547607 416.609619,916.778809 
	C415.940338,917.976135 413.810120,918.624268 412.225769,918.998352 
	C403.400391,921.082214 394.795624,923.811584 388.903534,931.140076 
	C385.894775,934.882080 383.384064,939.313660 381.791931,943.836182 
	C379.534119,950.249451 379.361420,957.009766 381.207458,963.763367 
	C381.847229,966.103943 382.498932,969.227539 381.471497,971.049866 
	C379.996338,973.666321 371.626648,974.366272 369.328430,972.726318 
	C365.221039,969.795227 360.972809,966.999268 357.196838,963.677002 
	C343.338654,951.483765 329.827209,938.891907 315.834473,926.858032 
	C306.914795,919.187073 297.866913,911.458923 287.962036,905.204651 
	C279.908722,900.119629 270.588013,896.959290 261.663879,893.355103 
	C248.249878,887.937683 234.763367,888.463318 220.648315,894.029907 
M423.888763,1299.333740 
	C424.691101,1297.699951 425.464478,1296.051147 426.300812,1294.434937 
	C429.712219,1287.842529 429.283478,1286.901245 422.540741,1283.818359 
	C412.062347,1279.027588 401.650665,1274.089111 391.243591,1269.144165 
	C370.916534,1259.485840 350.689178,1249.613647 330.276825,1240.139648 
	C309.765808,1230.619751 289.078430,1221.479858 268.470917,1212.167725 
	C232.834412,1196.064453 197.203812,1179.947998 161.560715,1163.859375 
	C155.616684,1161.176392 149.621796,1158.606323 143.408188,1155.877686 
	C141.114182,1159.820190 138.391220,1163.117920 137.135666,1166.902466 
	C132.283478,1181.528076 127.154114,1195.986328 124.332733,1211.343018 
	C122.157188,1223.184326 121.320312,1235.105225 121.649078,1246.715942 
	C122.073586,1261.707886 125.238808,1276.769653 128.582199,1291.493042 
	C132.524185,1308.852417 140.743073,1324.737427 150.967987,1339.120605 
	C157.953476,1348.946899 166.664566,1357.824585 175.779877,1365.779053 
	C184.588043,1373.465332 194.479630,1380.169067 204.660233,1385.959595 
	C217.969757,1393.529541 232.906723,1397.338379 247.927811,1399.682617 
	C264.324036,1402.241699 281.009125,1402.528931 297.286102,1398.713501 
	C309.668091,1395.811157 322.193024,1392.649902 333.824280,1387.666626 
	C344.665985,1383.021484 354.482422,1375.934082 364.622620,1369.713867 
	C377.020172,1362.108643 387.059296,1351.731323 396.498169,1340.905029 
	C407.296661,1328.519409 415.810455,1314.483032 423.888763,1299.333740 
M586.358765,495.910797 
	C557.641357,498.286652 528.917480,500.591339 500.221619,503.203857 
	C498.375671,503.371887 495.835785,505.584839 495.168732,507.412323 
	C491.719696,516.861755 488.705688,526.473450 485.674347,536.070984 
	C482.461914,546.241760 479.773956,556.179016 482.234558,567.338135 
	C487.369110,590.624207 491.234955,614.187317 495.835846,637.594604 
	C501.462463,666.220276 507.276337,694.809448 513.184143,723.378296 
	C513.404846,724.445496 515.569641,725.999512 516.646851,725.865601 
	C529.978821,724.207764 543.258179,722.127319 556.588806,720.457642 
	C572.458130,718.469971 588.343567,716.557251 604.263855,715.055481 
	C610.989990,714.420959 615.653503,711.952148 618.883301,705.780151 
	C624.078613,695.852112 629.778503,686.179260 635.496704,676.535889 
	C643.275391,663.417603 651.370056,650.486572 659.145691,637.366516 
	C665.956421,625.874329 672.369934,614.145935 679.225037,602.681030 
	C685.726562,591.807617 692.633423,581.177307 699.248108,570.370361 
	C703.720093,563.064209 707.959106,555.615845 712.367432,548.270142 
	C716.982178,540.580627 721.692444,532.948486 726.327820,525.271240 
	C730.181641,518.888306 733.999695,512.483582 737.811279,506.075226 
	C742.121216,498.829224 746.406189,491.568451 751.253052,483.383545 
	C748.393738,483.231598 746.644165,482.953094 744.923645,483.076965 
	C732.854065,483.946045 720.788635,484.875946 708.725281,485.828735 
	C689.424500,487.353149 670.125061,488.894836 650.827454,490.457947 
	C629.575317,492.179352 608.325928,493.933228 586.358765,495.910797 
M834.997070,677.496033 
	C841.364441,669.183716 847.778442,660.906616 854.088074,652.550720 
	C863.176880,640.514282 872.125732,628.371887 881.253723,616.365417 
	C890.228210,604.560730 899.417603,592.919189 908.380493,581.105774 
	C912.597839,575.547058 915.564392,569.493347 914.831787,562.126099 
	C914.319763,556.976624 914.091064,551.789551 913.958496,546.613586 
	C913.547668,530.560547 913.315552,514.502808 912.868896,498.450958 
	C912.616821,489.393921 912.079529,480.344788 911.668152,471.234802 
	C907.575317,471.234802 903.775513,470.984863 900.017639,471.275787 
	C877.156860,473.045685 854.309998,474.995575 831.449646,476.770782 
	C816.036377,477.967682 800.603943,478.917786 785.193604,480.148041 
	C783.432068,480.288666 781.010437,481.035217 780.162720,482.330536 
	C773.909058,491.886292 767.901855,501.606750 761.965759,511.365814 
	C755.937744,521.275940 750.208984,531.369385 744.114380,541.237488 
	C736.620361,553.371277 728.769287,565.284729 721.283325,577.423401 
	C713.772339,589.602661 706.600159,601.990479 699.136353,614.199341 
	C688.450928,631.677979 677.690918,649.111694 666.857544,666.499023 
	C658.485901,679.935425 649.939331,693.262756 641.521790,706.670776 
	C640.961731,707.562866 640.271423,709.296997 640.626343,709.650269 
	C641.401367,710.421753 642.828430,710.930847 643.957520,710.877563 
	C646.913696,710.738220 649.845825,710.159363 652.800232,709.899475 
	C661.381592,709.144653 669.974121,708.514282 678.553345,707.736816 
	C696.128723,706.144104 713.692200,704.416321 731.272766,702.885132 
	C740.867188,702.049622 750.494385,701.595276 760.093323,700.805481 
	C778.901855,699.257935 797.693359,697.496277 816.510132,696.063171 
	C820.418457,695.765503 823.103882,694.343445 825.273987,691.168701 
	C828.296509,686.746765 831.591797,682.511353 834.997070,677.496033 
M301.986877,609.921875 
	C299.528137,622.564941 297.121490,635.218384 294.597992,647.848511 
	C291.135803,665.176819 287.567596,682.483948 284.077209,699.806641 
	C280.788086,716.130493 277.685272,732.493774 274.204376,748.776367 
	C272.804871,755.322876 272.366638,761.607727 276.414154,767.253723 
	C277.463898,768.718079 279.980347,770.151672 281.639587,769.965332 
	C286.458679,769.424377 291.159363,767.916748 295.951660,767.033569 
	C314.320435,763.648499 332.726318,760.462463 351.080658,757.002380 
	C366.152252,754.161194 381.187988,751.120361 396.198425,747.971680 
	C399.446045,747.290344 402.863037,746.639832 404.112091,742.406616 
	C409.815491,723.077087 415.837708,703.841736 421.550415,684.514893 
	C426.753479,666.912170 431.623962,649.211243 436.796448,631.599243 
	C440.386627,619.374878 444.271118,607.237305 447.967499,595.043701 
	C451.803741,582.388794 455.651123,569.736145 459.330322,557.035217 
	C460.783051,552.020325 463.198639,546.742859 462.725677,541.820312 
	C461.612915,530.239014 459.025238,518.799377 457.004181,507.128265 
	C448.429108,507.891663 440.497253,508.512909 432.584167,509.318512 
	C410.863220,511.529877 389.154938,513.865906 367.432312,516.060303 
	C352.772522,517.541260 338.087860,518.782715 323.441650,520.381775 
	C321.883636,520.551941 319.528961,522.170959 319.207245,523.515686 
	C316.909515,533.119751 314.963654,542.811340 313.057251,552.504883 
	C309.342285,571.394653 305.726257,590.303894 301.986877,609.921875 
M548.781128,870.556702 
	C554.467896,890.299927 560.168213,910.039307 565.833984,929.788574 
	C567.817993,936.704285 568.041565,936.702942 575.023193,934.872192 
	C598.375793,928.748718 621.797119,922.885071 645.116089,916.637817 
	C649.945007,915.344177 655.106201,913.664734 658.921753,910.652588 
	C663.098999,907.354797 666.009888,902.392273 669.270874,898.005249 
	C681.491516,881.564270 693.545776,864.999146 705.826355,848.603394 
	C715.124634,836.189331 724.731628,824.007019 734.095947,811.641846 
	C750.147644,790.446472 766.109253,769.182922 782.124268,747.959717 
	C789.965027,737.569092 797.883240,727.236572 805.652832,716.793213 
	C806.781250,715.276367 807.273315,713.286072 808.350891,710.859558 
	C800.668152,711.347046 794.233521,711.611328 787.826904,712.187378 
	C763.222046,714.399536 738.636536,716.831360 714.024109,718.953308 
	C688.596252,721.145508 663.135559,722.962463 637.717346,725.255310 
	C634.525757,725.543091 630.840698,724.959717 628.409668,729.311707 
	C622.460571,739.961670 615.577637,750.086792 609.173401,760.486450 
	C600.592041,774.421204 592.150146,788.441711 583.570984,802.377808 
	C572.736389,819.977600 562.052673,837.678040 550.800598,855.008301 
	C547.577820,859.972046 546.350586,864.425720 548.781128,870.556702 
M737.509766,907.958984 
	C740.374023,905.611755 743.242737,903.270020 746.101685,900.916321 
	C762.645508,887.295898 779.136536,873.610657 795.745728,860.070374 
	C808.433105,849.727356 821.306030,839.612061 834.027771,829.310791 
	C844.370056,820.936279 854.567200,812.382507 864.911377,804.010315 
	C872.215332,798.098755 879.735718,792.453857 887.020203,786.519043 
	C899.009399,776.751404 910.853394,766.805725 922.819031,757.008911 
	C934.740234,747.248474 946.740173,737.584229 958.697571,727.867981 
	C968.995178,719.500366 979.339783,711.189026 989.545532,702.710632 
	C993.866760,699.120789 997.885681,695.167175 1002.041992,691.378845 
	C999.500122,690.215393 997.703735,690.010132 995.968018,690.247681 
	C982.003723,692.158203 968.088623,694.491211 954.086914,696.052551 
	C921.512634,699.684875 888.873718,702.746216 856.318176,706.530884 
	C848.562500,707.432495 838.948181,704.794006 834.360291,714.781860 
	C833.814880,715.969238 832.878357,716.987122 832.068115,718.041321 
	C813.354614,742.387695 794.612976,766.712402 775.920959,791.075256 
	C763.231750,807.614258 750.647156,824.233643 737.946899,840.764160 
	C727.765686,854.016052 717.386658,867.116577 707.262146,880.411255 
	C688.193481,905.450684 669.322693,930.640930 650.217346,955.652222 
	C638.781494,970.623230 627.015320,985.341553 615.493042,1000.247253 
	C612.720703,1003.833740 610.327393,1007.713196 607.759827,1011.458008 
	C608.251221,1011.873474 608.742615,1012.289001 609.234009,1012.704529 
	C616.380066,1006.815735 623.473938,1000.862122 630.682129,995.050415 
	C650.527222,979.050476 670.496948,963.204163 690.269897,947.115906 
	C705.942749,934.363892 721.397766,921.344116 737.509766,907.958984 
M431.962250,326.402618 
	C434.090729,334.251404 436.171753,342.113434 438.359009,349.945831 
	C441.529816,361.300354 445.098145,372.555084 447.896545,383.999146 
	C450.394165,394.213257 452.071625,404.627686 454.121246,414.951630 
	C456.427307,426.567230 458.878662,438.155914 461.020538,449.801575 
	C463.246674,461.905548 465.037689,474.091034 467.384308,486.169891 
	C467.754364,488.074799 467.611267,491.110168 471.039886,491.662292 
	C475.313538,492.350433 479.282471,489.963806 480.375824,485.733490 
	C481.759491,480.379700 483.123169,475.013306 484.755249,469.732635 
	C488.385193,457.987701 492.393280,446.355988 495.841736,434.559601 
	C499.269562,422.833557 501.984497,410.898926 505.419708,399.175201 
	C508.122375,389.951416 511.665924,380.975952 514.443787,371.771851 
	C519.374207,355.435547 523.989868,339.004425 528.768982,322.622253 
	C534.835327,301.827759 540.972656,281.053833 547.006592,260.249969 
	C552.776123,240.357727 558.318359,220.398651 564.217651,200.545364 
	C568.056030,187.627640 572.402588,174.861649 576.414490,161.994324 
	C577.490417,158.543533 578.174500,154.970596 579.278320,150.477524 
	C577.126770,151.441467 576.101318,151.654495 575.401917,152.250244 
	C558.290649,166.826355 541.270996,181.510376 524.113953,196.032242 
	C509.282074,208.586121 494.215851,220.863571 479.408051,233.445404 
	C461.247131,248.876221 443.200958,264.443451 425.229919,280.094910 
	C422.670624,282.323883 418.688934,283.416229 421.632721,289.367157 
	C425.394562,296.971893 426.639435,305.839172 428.818542,314.201569 
	C429.822083,318.052795 430.467896,321.997253 431.962250,326.402618 
M441.124146,423.157684 
	C441.013550,421.831085 441.072784,420.463959 440.766998,419.183990 
	C435.806702,398.420593 431.000610,377.617249 425.734894,356.931030 
	C422.104431,342.668823 417.872559,328.558105 413.809784,314.408295 
	C412.048096,308.272736 410.035706,302.209137 407.948547,295.507111 
	C405.867950,296.763672 404.499268,297.355804 403.414551,298.280884 
	C389.205688,310.398499 375.171600,322.725952 360.783417,334.625641 
	C355.905731,338.659698 353.606628,343.477112 352.994202,349.468689 
	C352.842255,350.955109 352.739807,352.456909 352.442566,353.916626 
	C348.310608,374.207947 344.061523,394.475800 340.014923,414.784027 
	C334.268982,443.620148 328.775452,472.507080 322.889740,501.314240 
	C321.971405,505.809052 323.641663,506.186035 327.109192,505.833466 
	C343.720490,504.144470 360.332489,502.461670 376.949280,500.828278 
	C397.311462,498.826691 417.681030,496.900482 438.041656,494.883514 
	C442.150208,494.476532 446.233582,493.814453 450.327423,493.261414 
	C453.241119,492.867889 454.188995,491.407867 453.533234,488.410065 
	C452.190582,482.272217 451.169128,476.064423 449.992737,469.889771 
	C447.078705,454.594910 444.151917,439.302460 441.124146,423.157684 
M216.083344,441.615143 
	C216.396515,448.698486 216.711090,455.781738 217.022537,462.865143 
	C217.681976,477.862640 218.238159,492.865631 219.046051,507.855133 
	C219.390259,514.241333 220.041611,514.383789 226.725769,513.748047 
	C237.327591,512.739746 247.952316,511.969788 258.569458,511.125580 
	C271.619812,510.087860 284.661499,508.868469 297.730865,508.186432 
	C301.496155,507.989929 302.224884,505.701691 302.702545,503.269043 
	C305.378754,489.640472 307.691803,475.940338 310.389069,462.316193 
	C314.355530,442.281250 318.643494,422.309296 322.484955,402.251251 
	C322.896851,400.100708 321.999146,396.730438 320.444275,395.324921 
	C307.586395,383.701813 294.378265,372.467560 281.375946,361.002441 
	C259.380768,341.607605 237.464523,322.123199 215.486404,302.708954 
	C214.492874,301.831299 213.217148,301.273163 211.456604,300.185455 
	C211.456604,308.389191 211.273788,315.597260 211.497528,322.792694 
	C211.875793,334.958191 212.579926,347.113220 213.021866,359.277191 
	C213.627350,375.942444 214.069717,392.613678 214.671402,409.279083 
	C215.049179,419.742798 215.590912,430.200562 216.083344,441.615143 
M490.329254,919.836975 
	C491.556976,917.549744 492.693573,915.207764 494.028778,912.985107 
	C498.835052,904.984558 503.702148,897.020447 508.558136,889.049866 
	C513.376282,881.141418 518.318176,873.305847 522.998657,865.317017 
	C526.437012,859.448181 530.746887,854.409363 527.432068,846.067810 
	C523.397888,835.916077 521.667847,824.834473 519.101074,814.116760 
	C513.690002,791.522278 508.287750,768.924561 503.146667,746.268005 
	C502.455811,743.223511 501.022003,742.845459 498.692383,743.172180 
	C493.943909,743.838196 489.197601,744.544495 484.478455,745.390747 
	C464.376007,748.995361 444.298553,752.742554 424.175812,756.229004 
	C419.932861,756.964111 417.317047,758.945862 416.104645,762.989685 
	C410.668396,781.122375 405.276611,799.268738 399.750397,817.374023 
	C396.095642,829.347961 392.138153,841.229858 388.518097,853.213928 
	C386.712311,859.191833 385.359497,865.306641 383.453339,872.713440 
	C410.043884,862.193970 435.303040,852.201172 460.564728,842.207458 
	C465.607239,856.582153 470.593323,870.820984 475.597504,885.053528 
	C479.577209,896.372253 483.560242,907.690002 487.635162,918.974426 
	C487.809723,919.457764 488.923889,919.601746 490.329254,919.836975 
M227.000809,720.145935 
	C227.671249,739.557068 228.398376,758.966553 228.958054,778.380920 
	C229.054901,781.740417 230.513489,782.441711 233.350677,781.692993 
	C236.874557,780.763123 240.371353,779.725830 243.910431,778.859863 
	C246.953796,778.115173 248.686432,776.537476 249.307312,773.237366 
	C251.718979,760.419067 254.435165,747.658569 256.938019,734.856934 
	C259.219940,723.185242 261.258087,711.465210 263.609283,699.807922 
	C266.973785,683.126953 270.654419,666.509216 273.961792,649.817261 
	C277.463074,632.147095 280.595581,614.404114 284.051605,596.724609 
	C288.598816,573.463196 293.264069,550.224487 297.986023,526.997864 
	C298.694305,523.513733 297.271942,522.283447 294.161652,522.522095 
	C271.028992,524.296692 247.909363,526.254944 224.763885,527.836914 
	C220.598923,528.121643 219.402206,529.251892 219.631546,533.437500 
	C220.327881,546.146240 220.585449,558.879028 221.012817,571.602478 
	C221.434387,584.153809 221.790878,596.707642 222.289703,609.255859 
	C223.150223,630.902527 224.089035,652.546082 225.013947,674.190186 
	C225.656433,689.224915 226.330658,704.258301 227.000809,720.145935 
M901.877136,284.311432 
	C900.175903,287.122803 898.504333,289.952637 896.768188,292.742279 
	C889.082581,305.091339 881.355957,317.414948 873.686951,329.774292 
	C865.948120,342.246216 858.253235,354.745514 850.551575,367.240448 
	C845.855286,374.859467 841.187195,382.495880 836.498413,390.119476 
	C828.720215,402.765991 820.930847,415.405579 813.154907,428.053467 
	C806.656799,438.622772 800.134399,449.177490 793.733459,459.805359 
	C793.044373,460.949371 792.430847,462.982208 792.979309,463.799713 
	C793.571350,464.682312 795.596191,465.002472 796.950928,464.909668 
	C805.525940,464.322266 814.086304,463.526245 822.655396,462.847778 
	C843.256165,461.216827 863.859375,459.616791 884.460999,457.995911 
	C893.312927,457.299469 902.163269,456.582520 911.469727,455.838470 
	C909.898926,396.920380 908.345642,338.660187 906.792358,280.399994 
	C906.321411,280.226929 905.850403,280.053894 905.379456,279.880859 
	C904.306702,281.131744 903.233948,282.382629 901.877136,284.311432 
M305.459137,1167.013062 
	C303.331024,1165.792358 301.287781,1164.383301 299.061493,1163.380737 
	C278.970337,1154.331787 258.803131,1145.450806 238.749588,1136.319946 
	C226.315979,1130.658691 214.093369,1124.535034 201.679092,1118.829834 
	C189.876129,1113.405640 177.899445,1108.359131 166.105316,1102.916504 
	C162.966843,1101.468140 161.591217,1102.405029 160.386154,1105.200073 
	C157.647385,1111.552124 154.888763,1117.901123 151.905197,1124.139893 
	C150.439331,1127.205078 150.941101,1129.038086 154.075790,1130.469849 
	C163.971527,1134.989624 173.764481,1139.735229 183.673187,1144.225830 
	C202.777451,1152.883911 221.993347,1161.297485 241.052383,1170.053101 
	C261.742798,1179.557983 282.301788,1189.348755 302.928619,1198.992432 
	C322.297882,1208.048340 341.661865,1217.115967 361.064392,1226.100098 
	C373.000946,1231.627319 385.008728,1237.000366 396.978485,1242.455933 
	C412.777405,1249.656982 428.595947,1256.815796 444.344482,1264.125366 
	C447.513733,1265.596436 449.259918,1264.825195 450.627045,1261.792603 
	C453.267151,1255.936523 455.900513,1250.067017 458.848114,1244.363892 
	C460.751099,1240.681885 460.448029,1238.500977 456.349518,1236.644775 
	C439.550873,1229.036133 422.853577,1221.202881 406.140625,1213.406128 
	C389.760620,1205.764404 373.458954,1197.952759 357.027130,1190.424805 
	C340.080444,1182.661133 323.018341,1175.149536 305.459137,1167.013062 
M369.249664,767.093933 
	C342.935944,772.380920 316.630371,777.709167 290.298584,782.904602 
	C286.862610,783.582581 285.548615,784.496155 287.442688,788.130676 
	C293.623779,799.991577 299.466888,812.028381 305.628235,823.899841 
	C318.806549,849.291382 332.072540,874.637634 345.381104,899.961182 
	C347.553864,904.095398 350.128143,908.018616 352.516846,912.039368 
	C353.006500,911.940857 353.496155,911.842346 353.985809,911.743835 
	C368.697510,862.164917 383.409241,812.585999 398.598206,761.398682 
	C388.221222,763.440857 379.096039,765.236694 369.249664,767.093933 
M454.547638,638.888062 
	C450.096466,652.908020 445.616730,666.918945 441.204071,680.950989 
	C438.234833,690.393127 435.269135,699.838196 432.469879,709.331543 
	C429.832611,718.275391 427.358978,727.269165 424.953400,736.278381 
	C424.519653,737.902771 424.764221,739.708252 424.695618,741.430176 
	C426.268585,741.293884 427.848907,741.212891 429.412201,741.004211 
	C430.722260,740.829407 432.006683,740.471619 433.312195,740.252869 
	C453.878510,736.806763 474.448151,733.380798 495.011688,729.918213 
	C497.651733,729.473694 499.229492,728.190674 498.566010,725.117493 
	C497.832367,721.719177 497.362762,718.264832 496.688507,714.852600 
	C489.754974,679.764404 482.805664,644.679443 475.854462,609.594788 
	C474.524750,602.883362 473.167786,596.177429 471.823425,589.468933 
	C471.063293,589.388855 470.303162,589.308716 469.543030,589.228638 
	C464.635864,605.576904 459.728668,621.925232 454.547638,638.888062 
M902.380249,646.147034 
	C899.419739,645.766724 896.400757,645.631470 893.514099,644.942078 
	C890.144653,644.137451 888.022522,645.085693 885.906250,647.873901 
	C876.308350,660.519592 866.460815,672.975525 856.758484,685.542419 
	C855.433411,687.258667 854.419495,689.215149 852.758850,691.861572 
	C856.830994,691.861572 859.654297,692.091187 862.429138,691.822021 
	C874.770630,690.624756 887.106628,689.359436 899.429077,687.979919 
	C920.627747,685.606506 941.838623,683.317200 962.999573,680.639038 
	C980.981323,678.363342 998.936768,675.814148 1016.823059,672.891602 
	C1021.850769,672.070068 1026.652832,669.645081 1031.421509,667.631470 
	C1032.502686,667.174988 1033.014526,665.369690 1033.788330,664.185242 
	C1032.398926,663.482056 1031.072510,662.378601 1029.608643,662.147827 
	C1024.404663,661.327271 1019.150696,660.829285 1013.921448,660.163696 
	C994.850891,657.736145 975.786926,655.256042 956.712219,652.861389 
	C938.850708,650.618958 920.978699,648.459351 902.380249,646.147034 
M600.458862,735.816772 
	C601.197021,733.750671 601.935181,731.684509 602.848022,729.129333 
	C593.382202,730.224609 584.683044,731.148376 576.006775,732.252319 
	C558.149658,734.524536 540.301636,736.869629 522.457458,739.241821 
	C518.876587,739.717896 516.630432,741.095154 517.871521,745.519958 
	C519.426697,751.064758 520.398193,756.770935 521.712158,762.386230 
	C525.296814,777.705444 528.904175,793.019470 532.552185,808.323730 
	C534.626526,817.026367 536.797913,825.705750 538.925598,834.395630 
	C539.468750,834.418274 540.011841,834.440857 540.554993,834.463440 
	C541.423706,833.169006 542.343994,831.905945 543.152832,830.575073 
	C548.641602,821.543030 554.108276,812.497498 559.579285,803.454590 
	C567.538940,790.298401 575.512024,777.150391 583.448853,763.980530 
	C588.985535,754.793335 594.471130,745.575378 600.458862,735.816772 
M547.278015,941.803040 
	C553.665039,939.842041 553.572266,939.868835 551.779846,933.664612 
	C549.020630,924.114319 546.454834,914.508362 543.710327,904.953735 
	C541.443665,897.062927 539.036926,889.212280 536.692261,881.343872 
	C536.077942,881.164490 535.463623,880.985107 534.849304,880.805725 
	C519.744446,905.430359 504.639557,930.054993 489.534698,954.679626 
	C489.971619,955.283386 490.408539,955.887207 490.845459,956.490967 
	C509.396545,951.658630 527.947632,946.826233 547.278015,941.803040 
M233.888947,849.759766 
	C237.115555,834.338440 240.678940,818.977295 243.450043,803.474548 
	C245.289932,793.181458 244.848572,793.365601 234.513367,795.843079 
	C230.675369,796.763062 229.837814,798.438782 229.965454,801.919495 
	C230.438004,814.805847 230.597687,827.704468 231.161224,840.585938 
	C231.298782,843.730286 232.526031,846.826904 233.888947,849.759766 
z"/>
<path fill="#002854" opacity="1.000000" stroke="none" 
	d="
M613.757690,220.894119 
	C622.990723,216.285660 631.832764,211.724030 640.746460,207.307190 
	C656.187073,199.656281 671.645996,192.041565 687.144531,184.508987 
	C709.484985,173.651123 731.879395,162.904358 754.224487,152.056030 
	C760.161560,149.173676 766.025757,146.138153 771.878845,143.087311 
	C775.429688,141.236465 777.560608,141.559982 778.612915,146.018524 
	C781.046082,156.328156 783.740295,166.579819 786.517700,176.803619 
	C789.690430,188.482635 793.133606,200.087997 796.341736,211.757645 
	C801.353333,229.986710 806.309570,248.231277 811.207092,266.491302 
	C815.243896,281.542297 819.083679,296.646362 823.158508,311.686920 
	C826.051636,322.365784 829.274597,332.955566 832.135742,343.642609 
	C832.596558,345.364044 832.559937,347.761719 831.691040,349.209045 
	C825.426025,359.644745 818.723328,369.818054 812.479614,380.265930 
	C805.626892,391.732697 799.193970,403.449554 792.432068,414.971741 
	C787.661926,423.099976 782.660095,431.092529 777.740234,439.132538 
	C772.748413,447.290314 767.615173,455.364624 762.785950,463.617157 
	C761.114014,466.474182 759.332458,467.858429 755.807251,468.069458 
	C740.750610,468.970734 725.716858,470.262085 710.677612,471.447083 
	C696.011597,472.602661 681.350037,473.813568 666.684814,474.979065 
	C649.036072,476.381714 631.384094,477.744019 613.736267,479.157593 
	C597.921265,480.424347 582.106995,481.701233 566.297913,483.038879 
	C547.682495,484.613953 529.075745,486.291931 510.458130,487.839813 
	C507.533630,488.082947 504.571503,487.873840 500.768982,487.873840 
	C503.636414,478.174530 506.250946,469.164368 508.965942,460.184509 
	C513.457581,445.328491 517.920166,430.462585 522.569763,415.655731 
	C527.213928,400.865906 532.204224,386.184296 536.796936,371.378937 
	C540.697754,358.804077 544.119812,346.081085 547.984863,333.494598 
	C553.373596,315.946228 559.062805,298.490204 564.461365,280.944763 
	C568.400269,268.143341 572.001892,255.238098 575.955017,242.441223 
	C576.534058,240.566818 577.851196,238.288605 579.470398,237.469009 
	C590.684509,231.792877 602.069092,226.453583 613.757690,220.894119 
z"/>
<path fill="#014887" opacity="1.000000" stroke="none" 
	d="
M221.025497,893.925720 
	C234.763367,888.463318 248.249878,887.937683 261.663879,893.355103 
	C270.588013,896.959290 279.908722,900.119629 287.962036,905.204651 
	C297.866913,911.458923 306.914795,919.187073 315.834473,926.858032 
	C329.827209,938.891907 343.338654,951.483765 357.196838,963.677002 
	C360.972809,966.999268 365.221039,969.795227 369.328430,972.726318 
	C371.626648,974.366272 379.996338,973.666321 381.471497,971.049866 
	C382.498932,969.227539 381.847229,966.103943 381.207458,963.763367 
	C379.361420,957.009766 379.534119,950.249451 381.791931,943.836182 
	C383.384064,939.313660 385.894775,934.882080 388.903534,931.140076 
	C394.795624,923.811584 403.400391,921.082214 412.225769,918.998352 
	C413.810120,918.624268 415.940338,917.976135 416.609619,916.778809 
	C418.974762,912.547607 420.814880,908.023010 422.984863,903.326477 
	C418.120270,901.071045 413.884552,898.787842 409.415985,897.133972 
	C405.679504,895.750977 404.990326,893.287476 406.146454,890.132141 
	C408.008545,885.049866 409.940491,879.948303 412.428467,875.159058 
	C413.696991,872.717346 416.064453,870.923462 419.430908,873.074707 
	C421.624786,874.476746 424.212067,875.277649 426.652130,876.277039 
	C433.534729,879.095947 433.544586,879.083496 436.710114,872.655396 
	C437.222076,871.615784 437.660278,870.539978 438.166138,869.497131 
	C441.828522,861.946838 443.112244,861.381836 450.817505,865.428711 
	C462.026154,871.315430 463.011871,868.016724 456.306976,882.234375 
	C453.432098,888.330505 453.351501,888.144104 459.566376,891.233276 
	C463.623901,893.250061 467.477051,895.677979 471.452850,897.939453 
	C467.758331,905.829468 464.477020,912.837036 460.930573,920.410828 
	C456.291382,918.269287 452.005127,916.320251 447.744843,914.315979 
	C443.163727,912.160706 441.290833,912.934265 439.212891,917.529785 
	C436.632904,923.235596 435.624573,928.052734 439.356659,934.476562 
	C447.744751,948.914429 443.805359,963.079712 433.790344,975.134583 
	C429.804443,979.932251 423.129211,982.495728 417.423035,986.243958 
	C417.636047,987.059448 417.991974,988.471802 418.374237,989.877075 
	C420.536194,997.825256 421.768921,998.387878 430.377686,999.315796 
	C437.794586,1000.115173 445.092041,1001.970215 452.473541,1003.165466 
	C460.646088,1004.488831 468.846130,1005.651428 477.049530,1006.771606 
	C482.560913,1007.524292 488.147430,1007.809204 493.614868,1008.783264 
	C504.824432,1010.780151 516.194214,1012.352722 527.082336,1015.526428 
	C535.590698,1018.006531 543.677063,1022.249634 551.576843,1026.418335 
	C560.298157,1031.020508 567.923157,1037.143433 573.326721,1045.687866 
	C581.522034,1058.646606 585.017090,1072.544434 581.996521,1087.771973 
	C576.830933,1113.813110 559.557129,1131.486084 539.989441,1147.234009 
	C526.484741,1158.102661 511.917847,1167.649048 498.373901,1178.472290 
	C485.034210,1189.132446 473.548920,1201.609863 466.256073,1217.402466 
	C465.851410,1218.278687 465.281494,1219.078491 464.473236,1220.447998 
	C367.464386,1175.681396 270.628601,1130.994629 174.223526,1086.506592 
	C177.342865,1076.232544 181.040298,1067.278442 182.611053,1057.965576 
	C184.153152,1048.822632 183.811508,1039.314087 183.779572,1029.967773 
	C183.751678,1021.805908 183.136185,1013.636902 182.541748,1005.488403 
	C181.797714,995.288940 180.347702,985.119202 180.084412,974.913940 
	C179.898544,967.709351 181.111664,960.460205 181.819870,953.242798 
	C183.108002,940.115234 187.707169,927.793152 194.337555,916.797913 
	C200.384552,906.770020 209.099472,898.403137 221.025497,893.925720 
M224.014038,1074.468384 
	C225.718674,1076.653931 227.256378,1078.999146 229.162292,1080.992188 
	C233.248901,1085.265381 242.106430,1087.240967 245.072144,1084.055298 
	C249.822220,1078.952759 253.134918,1072.861572 251.898788,1065.485229 
	C251.600113,1063.702881 250.363876,1061.432983 248.881195,1060.613892 
	C244.300583,1058.083496 239.306885,1056.313477 234.638763,1053.925293 
	C230.789261,1051.955933 227.776337,1049.156250 228.971634,1044.142212 
	C229.949554,1040.040039 230.828201,1035.899658 232.099518,1031.886719 
	C233.084457,1028.777710 234.853714,1027.481689 238.343933,1029.592529 
	C243.508636,1032.715820 249.062073,1035.188843 254.338608,1038.137939 
	C257.254547,1039.767700 258.376617,1038.354126 258.728424,1035.850586 
	C259.311768,1031.700073 259.936951,1027.509277 259.935425,1023.335754 
	C259.933868,1019.179382 262.113678,1018.475830 265.345367,1019.088379 
	C266.922058,1019.387268 268.449158,1020.194946 269.877686,1020.989868 
	C283.221100,1028.415283 283.226196,1028.431519 280.875153,1039.306030 
	C280.632019,1040.430664 280.030151,1041.475098 279.757538,1042.596313 
	C278.719299,1046.865479 277.677612,1050.999756 283.894470,1052.464355 
	C286.570679,1053.094727 288.989655,1054.787354 291.550659,1055.941650 
	C299.692841,1059.611206 299.893829,1059.956909 298.050507,1068.615234 
	C297.472076,1071.332397 296.758911,1074.020630 296.158356,1076.733276 
	C295.142181,1081.323364 293.531219,1082.108765 289.232025,1080.098755 
	C284.154724,1077.724976 279.065887,1075.375732 273.520630,1072.801636 
	C272.935547,1074.680298 272.272034,1076.157104 272.029694,1077.700073 
	C270.861969,1085.135742 272.881409,1092.113159 276.345123,1098.444214 
	C280.755890,1106.506348 289.159668,1112.156128 299.477692,1109.204834 
	C308.101868,1106.738037 314.657043,1101.426270 320.488403,1095.458130 
	C325.530273,1090.297974 330.219757,1084.087036 332.882874,1077.463257 
	C337.729431,1065.409058 341.106628,1052.752686 342.028839,1039.604736 
	C342.377533,1034.633057 343.617188,1029.707275 343.754395,1024.741211 
	C344.019653,1015.137512 343.816284,1005.567688 347.683228,996.421204 
	C348.405731,994.712341 348.099548,991.560608 346.941345,990.227051 
	C339.045105,981.135132 331.041168,972.107117 322.580078,963.544617 
	C315.677521,956.559387 308.221069,950.099487 300.780762,943.672363 
	C287.272156,932.003235 273.234314,921.205383 255.446930,916.570251 
	C245.617126,914.008728 236.057693,913.984375 227.267303,919.363037 
	C213.617401,927.715149 209.342606,941.636841 207.095383,956.232483 
	C205.143707,968.908386 205.399689,981.690063 207.024658,994.471619 
	C208.547989,1006.453735 209.573685,1018.500916 210.713455,1030.529419 
	C212.163773,1045.835205 215.896896,1060.447266 224.014038,1074.468384 
M363.028656,1131.718262 
	C365.063446,1136.312500 366.255981,1141.597290 369.326630,1145.342285 
	C374.164581,1151.242676 381.272736,1152.101562 388.468384,1149.947266 
	C396.741364,1147.470703 405.330750,1145.322876 409.744049,1135.955444 
	C404.697876,1133.580933 399.738495,1131.118042 394.671387,1128.901489 
	C390.168396,1126.931763 389.173462,1123.871094 392.257721,1120.173096 
	C394.557983,1117.415039 397.074371,1114.838379 399.447510,1112.139648 
	C402.642120,1108.506470 406.145996,1108.040771 410.303436,1110.596436 
	C413.460815,1112.537354 416.711395,1114.491577 420.179626,1115.689941 
	C421.829681,1116.260132 424.666321,1115.726685 425.946899,1114.567749 
	C428.936646,1111.861694 431.397369,1108.543335 433.907440,1105.343628 
	C436.181519,1102.444580 438.875366,1099.839233 442.652802,1101.120728 
	C448.370636,1103.060425 453.832001,1105.756226 460.686584,1108.678223 
	C455.138641,1115.186890 450.514221,1120.612183 445.347290,1126.673828 
	C451.705017,1128.996338 457.207672,1131.289551 462.885162,1133.003784 
	C468.993652,1134.848022 470.176849,1137.116333 467.101288,1142.705566 
	C465.928192,1144.837402 464.891876,1147.085815 463.436981,1149.012085 
	C460.871216,1152.409058 457.785675,1155.328613 453.017487,1153.811890 
	C448.668671,1152.428345 444.325623,1150.910522 440.190002,1148.997803 
	C431.922211,1145.174194 428.055267,1146.341309 423.680023,1154.541016 
	C422.904144,1155.995239 422.308533,1157.544800 421.554443,1159.011475 
	C418.817474,1164.334839 420.327484,1169.050903 425.496979,1172.108276 
	C434.565460,1177.471436 443.876770,1175.189331 452.511627,1171.908691 
	C461.233429,1168.594727 469.534851,1163.887573 477.514008,1158.969238 
	C491.405365,1150.406616 504.990723,1141.336060 518.527649,1132.216064 
	C523.240784,1129.040894 527.636169,1125.311401 531.819763,1121.448486 
	C542.657410,1111.442017 551.921082,1100.355347 555.692383,1085.560059 
	C559.094360,1072.213623 555.664124,1061.384644 545.536255,1051.895264 
	C535.760010,1042.735352 523.796997,1038.443970 511.460999,1035.264893 
	C501.138153,1032.604492 490.407440,1031.364258 479.788086,1030.058350 
	C466.731171,1028.452759 453.625092,1026.981323 440.496490,1026.318359 
	C431.879669,1025.883301 421.706512,1023.110535 417.483215,1035.102051 
	C417.081665,1036.242310 415.893402,1037.154175 414.951752,1038.046997 
	C410.236908,1042.517700 405.612640,1047.096191 400.713898,1051.358032 
	C391.782227,1059.128540 384.292328,1068.083130 377.986298,1078.060059 
	C373.892761,1084.536499 368.333557,1090.583008 366.159607,1097.660278 
	C362.894775,1108.288696 360.245850,1119.501831 363.028656,1131.718262 
z"/>
<path fill="#004986" opacity="1.000000" stroke="none" 
	d="
M423.702057,1299.657227 
	C415.810455,1314.483032 407.296661,1328.519409 396.498169,1340.905029 
	C387.059296,1351.731323 377.020172,1362.108643 364.622620,1369.713867 
	C354.482422,1375.934082 344.665985,1383.021484 333.824280,1387.666626 
	C322.193024,1392.649902 309.668091,1395.811157 297.286102,1398.713501 
	C281.009125,1402.528931 264.324036,1402.241699 247.927811,1399.682617 
	C232.906723,1397.338379 217.969757,1393.529541 204.660233,1385.959595 
	C194.479630,1380.169067 184.588043,1373.465332 175.779877,1365.779053 
	C166.664566,1357.824585 157.953476,1348.946899 150.967987,1339.120605 
	C140.743073,1324.737427 132.524185,1308.852417 128.582199,1291.493042 
	C125.238808,1276.769653 122.073586,1261.707886 121.649078,1246.715942 
	C121.320312,1235.105225 122.157188,1223.184326 124.332733,1211.343018 
	C127.154114,1195.986328 132.283478,1181.528076 137.135666,1166.902466 
	C138.391220,1163.117920 141.114182,1159.820190 143.408188,1155.877686 
	C149.621796,1158.606323 155.616684,1161.176392 161.560715,1163.859375 
	C197.203812,1179.947998 232.834412,1196.064453 268.470917,1212.167725 
	C289.078430,1221.479858 309.765808,1230.619751 330.276825,1240.139648 
	C350.689178,1249.613647 370.916534,1259.485840 391.243591,1269.144165 
	C401.650665,1274.089111 412.062347,1279.027588 422.540741,1283.818359 
	C429.283478,1286.901245 429.712219,1287.842529 426.300812,1294.434937 
	C425.464478,1296.051147 424.691101,1297.699951 423.702057,1299.657227 
z"/>
<path fill="#0134A1" opacity="1.000000" stroke="none" 
	d="
M586.717041,495.791870 
	C608.325928,493.933228 629.575317,492.179352 650.827454,490.457947 
	C670.125061,488.894836 689.424500,487.353149 708.725281,485.828735 
	C720.788635,484.875946 732.854065,483.946045 744.923645,483.076965 
	C746.644165,482.953094 748.393738,483.231598 751.253052,483.383545 
	C746.406189,491.568451 742.121216,498.829224 737.811279,506.075226 
	C733.999695,512.483582 730.181641,518.888306 726.327820,525.271240 
	C721.692444,532.948486 716.982178,540.580627 712.367432,548.270142 
	C707.959106,555.615845 703.720093,563.064209 699.248108,570.370361 
	C692.633423,581.177307 685.726562,591.807617 679.225037,602.681030 
	C672.369934,614.145935 665.956421,625.874329 659.145691,637.366516 
	C651.370056,650.486572 643.275391,663.417603 635.496704,676.535889 
	C629.778503,686.179260 624.078613,695.852112 618.883301,705.780151 
	C615.653503,711.952148 610.989990,714.420959 604.263855,715.055481 
	C588.343567,716.557251 572.458130,718.469971 556.588806,720.457642 
	C543.258179,722.127319 529.978821,724.207764 516.646851,725.865601 
	C515.569641,725.999512 513.404846,724.445496 513.184143,723.378296 
	C507.276337,694.809448 501.462463,666.220276 495.835846,637.594604 
	C491.234955,614.187317 487.369110,590.624207 482.234558,567.338135 
	C479.773956,556.179016 482.461914,546.241760 485.674347,536.070984 
	C488.705688,526.473450 491.719696,516.861755 495.168732,507.412323 
	C495.835785,505.584839 498.375671,503.371887 500.221619,503.203857 
	C528.917480,500.591339 557.641357,498.286652 586.717041,495.791870 
z"/>
<path fill="#6CACE4" opacity="1.000000" stroke="none" 
	d="
M834.883667,677.846069 
	C831.591797,682.511353 828.296509,686.746765 825.273987,691.168701 
	C823.103882,694.343445 820.418457,695.765503 816.510132,696.063171 
	C797.693359,697.496277 778.901855,699.257935 760.093323,700.805481 
	C750.494385,701.595276 740.867188,702.049622 731.272766,702.885132 
	C713.692200,704.416321 696.128723,706.144104 678.553345,707.736816 
	C669.974121,708.514282 661.381592,709.144653 652.800232,709.899475 
	C649.845825,710.159363 646.913696,710.738220 643.957520,710.877563 
	C642.828430,710.930847 641.401367,710.421753 640.626343,709.650269 
	C640.271423,709.296997 640.961731,707.562866 641.521790,706.670776 
	C649.939331,693.262756 658.485901,679.935425 666.857544,666.499023 
	C677.690918,649.111694 688.450928,631.677979 699.136353,614.199341 
	C706.600159,601.990479 713.772339,589.602661 721.283325,577.423401 
	C728.769287,565.284729 736.620361,553.371277 744.114380,541.237488 
	C750.208984,531.369385 755.937744,521.275940 761.965759,511.365814 
	C767.901855,501.606750 773.909058,491.886292 780.162720,482.330536 
	C781.010437,481.035217 783.432068,480.288666 785.193604,480.148041 
	C800.603943,478.917786 816.036377,477.967682 831.449646,476.770782 
	C854.309998,474.995575 877.156860,473.045685 900.017639,471.275787 
	C903.775513,470.984863 907.575317,471.234802 911.668152,471.234802 
	C912.079529,480.344788 912.616821,489.393921 912.868896,498.450958 
	C913.315552,514.502808 913.547668,530.560547 913.958496,546.613586 
	C914.091064,551.789551 914.319763,556.976624 914.831787,562.126099 
	C915.564392,569.493347 912.597839,575.547058 908.380493,581.105774 
	C899.417603,592.919189 890.228210,604.560730 881.253723,616.365417 
	C872.125732,628.371887 863.176880,640.514282 854.088074,652.550720 
	C847.778442,660.906616 841.364441,669.183716 834.883667,677.846069 
z"/>
<path fill="#0134A1" opacity="1.000000" stroke="none" 
	d="
M302.028076,609.563477 
	C305.726257,590.303894 309.342285,571.394653 313.057251,552.504883 
	C314.963654,542.811340 316.909515,533.119751 319.207245,523.515686 
	C319.528961,522.170959 321.883636,520.551941 323.441650,520.381775 
	C338.087860,518.782715 352.772522,517.541260 367.432312,516.060303 
	C389.154938,513.865906 410.863220,511.529877 432.584167,509.318512 
	C440.497253,508.512909 448.429108,507.891663 457.004181,507.128265 
	C459.025238,518.799377 461.612915,530.239014 462.725677,541.820312 
	C463.198639,546.742859 460.783051,552.020325 459.330322,557.035217 
	C455.651123,569.736145 451.803741,582.388794 447.967499,595.043701 
	C444.271118,607.237305 440.386627,619.374878 436.796448,631.599243 
	C431.623962,649.211243 426.753479,666.912170 421.550415,684.514893 
	C415.837708,703.841736 409.815491,723.077087 404.112091,742.406616 
	C402.863037,746.639832 399.446045,747.290344 396.198425,747.971680 
	C381.187988,751.120361 366.152252,754.161194 351.080658,757.002380 
	C332.726318,760.462463 314.320435,763.648499 295.951660,767.033569 
	C291.159363,767.916748 286.458679,769.424377 281.639587,769.965332 
	C279.980347,770.151672 277.463898,768.718079 276.414154,767.253723 
	C272.366638,761.607727 272.804871,755.322876 274.204376,748.776367 
	C277.685272,732.493774 280.788086,716.130493 284.077209,699.806641 
	C287.567596,682.483948 291.135803,665.176819 294.597992,647.848511 
	C297.121490,635.218384 299.528137,622.564941 302.028076,609.563477 
z"/>
<path fill="#002854" opacity="1.000000" stroke="none" 
	d="
M548.640015,870.191406 
	C546.350586,864.425720 547.577820,859.972046 550.800598,855.008301 
	C562.052673,837.678040 572.736389,819.977600 583.570984,802.377808 
	C592.150146,788.441711 600.592041,774.421204 609.173401,760.486450 
	C615.577637,750.086792 622.460571,739.961670 628.409668,729.311707 
	C630.840698,724.959717 634.525757,725.543091 637.717346,725.255310 
	C663.135559,722.962463 688.596252,721.145508 714.024109,718.953308 
	C738.636536,716.831360 763.222046,714.399536 787.826904,712.187378 
	C794.233521,711.611328 800.668152,711.347046 808.350891,710.859558 
	C807.273315,713.286072 806.781250,715.276367 805.652832,716.793213 
	C797.883240,727.236572 789.965027,737.569092 782.124268,747.959717 
	C766.109253,769.182922 750.147644,790.446472 734.095947,811.641846 
	C724.731628,824.007019 715.124634,836.189331 705.826355,848.603394 
	C693.545776,864.999146 681.491516,881.564270 669.270874,898.005249 
	C666.009888,902.392273 663.098999,907.354797 658.921753,910.652588 
	C655.106201,913.664734 649.945007,915.344177 645.116089,916.637817 
	C621.797119,922.885071 598.375793,928.748718 575.023193,934.872192 
	C568.041565,936.702942 567.817993,936.704285 565.833984,929.788574 
	C560.168213,910.039307 554.467896,890.299927 548.640015,870.191406 
z"/>
<path fill="#0072CF" opacity="1.000000" stroke="none" 
	d="
M737.229614,908.201111 
	C721.397766,921.344116 705.942749,934.363892 690.269897,947.115906 
	C670.496948,963.204163 650.527222,979.050476 630.682129,995.050415 
	C623.473938,1000.862122 616.380066,1006.815735 609.234009,1012.704529 
	C608.742615,1012.289001 608.251221,1011.873474 607.759827,1011.458008 
	C610.327393,1007.713196 612.720703,1003.833740 615.493042,1000.247253 
	C627.015320,985.341553 638.781494,970.623230 650.217346,955.652222 
	C669.322693,930.640930 688.193481,905.450684 707.262146,880.411255 
	C717.386658,867.116577 727.765686,854.016052 737.946899,840.764160 
	C750.647156,824.233643 763.231750,807.614258 775.920959,791.075256 
	C794.612976,766.712402 813.354614,742.387695 832.068115,718.041321 
	C832.878357,716.987122 833.814880,715.969238 834.360291,714.781860 
	C838.948181,704.794006 848.562500,707.432495 856.318176,706.530884 
	C888.873718,702.746216 921.512634,699.684875 954.086914,696.052551 
	C968.088623,694.491211 982.003723,692.158203 995.968018,690.247681 
	C997.703735,690.010132 999.500122,690.215393 1002.041992,691.378845 
	C997.885681,695.167175 993.866760,699.120789 989.545532,702.710632 
	C979.339783,711.189026 968.995178,719.500366 958.697571,727.867981 
	C946.740173,737.584229 934.740234,747.248474 922.819031,757.008911 
	C910.853394,766.805725 899.009399,776.751404 887.020203,786.519043 
	C879.735718,792.453857 872.215332,798.098755 864.911377,804.010315 
	C854.567200,812.382507 844.370056,820.936279 834.027771,829.310791 
	C821.306030,839.612061 808.433105,849.727356 795.745728,860.070374 
	C779.136536,873.610657 762.645508,887.295898 746.101685,900.916321 
	C743.242737,903.270020 740.374023,905.611755 737.229614,908.201111 
z"/>
<path fill="#B9D8EA" opacity="1.000000" stroke="none" 
	d="
M431.619080,326.151001 
	C430.467896,321.997253 429.822083,318.052795 428.818542,314.201569 
	C426.639435,305.839172 425.394562,296.971893 421.632721,289.367157 
	C418.688934,283.416229 422.670624,282.323883 425.229919,280.094910 
	C443.200958,264.443451 461.247131,248.876221 479.408051,233.445404 
	C494.215851,220.863571 509.282074,208.586121 524.113953,196.032242 
	C541.270996,181.510376 558.290649,166.826355 575.401917,152.250244 
	C576.101318,151.654495 577.126770,151.441467 579.278320,150.477524 
	C578.174500,154.970596 577.490417,158.543533 576.414490,161.994324 
	C572.402588,174.861649 568.056030,187.627640 564.217651,200.545364 
	C558.318359,220.398651 552.776123,240.357727 547.006592,260.249969 
	C540.972656,281.053833 534.835327,301.827759 528.768982,322.622253 
	C523.989868,339.004425 519.374207,355.435547 514.443787,371.771851 
	C511.665924,380.975952 508.122375,389.951416 505.419708,399.175201 
	C501.984497,410.898926 499.269562,422.833557 495.841736,434.559601 
	C492.393280,446.355988 488.385193,457.987701 484.755249,469.732635 
	C483.123169,475.013306 481.759491,480.379700 480.375824,485.733490 
	C479.282471,489.963806 475.313538,492.350433 471.039886,491.662292 
	C467.611267,491.110168 467.754364,488.074799 467.384308,486.169891 
	C465.037689,474.091034 463.246674,461.905548 461.020538,449.801575 
	C458.878662,438.155914 456.427307,426.567230 454.121246,414.951630 
	C452.071625,404.627686 450.394165,394.213257 447.896545,383.999146 
	C445.098145,372.555084 441.529816,361.300354 438.359009,349.945831 
	C436.171753,342.113434 434.090729,334.251404 431.619080,326.151001 
z"/>
<path fill="#002854" opacity="1.000000" stroke="none" 
	d="
M441.177185,423.583374 
	C444.151917,439.302460 447.078705,454.594910 449.992737,469.889771 
	C451.169128,476.064423 452.190582,482.272217 453.533234,488.410065 
	C454.188995,491.407867 453.241119,492.867889 450.327423,493.261414 
	C446.233582,493.814453 442.150208,494.476532 438.041656,494.883514 
	C417.681030,496.900482 397.311462,498.826691 376.949280,500.828278 
	C360.332489,502.461670 343.720490,504.144470 327.109192,505.833466 
	C323.641663,506.186035 321.971405,505.809052 322.889740,501.314240 
	C328.775452,472.507080 334.268982,443.620148 340.014923,414.784027 
	C344.061523,394.475800 348.310608,374.207947 352.442566,353.916626 
	C352.739807,352.456909 352.842255,350.955109 352.994202,349.468689 
	C353.606628,343.477112 355.905731,338.659698 360.783417,334.625641 
	C375.171600,322.725952 389.205688,310.398499 403.414551,298.280884 
	C404.499268,297.355804 405.867950,296.763672 407.948547,295.507111 
	C410.035706,302.209137 412.048096,308.272736 413.809784,314.408295 
	C417.872559,328.558105 422.104431,342.668823 425.734894,356.931030 
	C431.000610,377.617249 435.806702,398.420593 440.766998,419.183990 
	C441.072784,420.463959 441.013550,421.831085 441.177185,423.583374 
z"/>
<path fill="#0072CF" opacity="1.000000" stroke="none" 
	d="
M216.071228,441.138062 
	C215.590912,430.200562 215.049179,419.742798 214.671402,409.279083 
	C214.069717,392.613678 213.627350,375.942444 213.021866,359.277191 
	C212.579926,347.113220 211.875793,334.958191 211.497528,322.792694 
	C211.273788,315.597260 211.456604,308.389191 211.456604,300.185455 
	C213.217148,301.273163 214.492874,301.831299 215.486404,302.708954 
	C237.464523,322.123199 259.380768,341.607605 281.375946,361.002441 
	C294.378265,372.467560 307.586395,383.701813 320.444275,395.324921 
	C321.999146,396.730438 322.896851,400.100708 322.484955,402.251251 
	C318.643494,422.309296 314.355530,442.281250 310.389069,462.316193 
	C307.691803,475.940338 305.378754,489.640472 302.702545,503.269043 
	C302.224884,505.701691 301.496155,507.989929 297.730865,508.186432 
	C284.661499,508.868469 271.619812,510.087860 258.569458,511.125580 
	C247.952316,511.969788 237.327591,512.739746 226.725769,513.748047 
	C220.041611,514.383789 219.390259,514.241333 219.046051,507.855133 
	C218.238159,492.865631 217.681976,477.862640 217.022537,462.865143 
	C216.711090,455.781738 216.396515,448.698486 216.071228,441.138062 
z"/>
<path fill="#0072CF" opacity="1.000000" stroke="none" 
	d="
M489.964813,919.870361 
	C488.923889,919.601746 487.809723,919.457764 487.635162,918.974426 
	C483.560242,907.690002 479.577209,896.372253 475.597504,885.053528 
	C470.593323,870.820984 465.607239,856.582153 460.564728,842.207458 
	C435.303040,852.201172 410.043884,862.193970 383.453339,872.713440 
	C385.359497,865.306641 386.712311,859.191833 388.518097,853.213928 
	C392.138153,841.229858 396.095642,829.347961 399.750397,817.374023 
	C405.276611,799.268738 410.668396,781.122375 416.104645,762.989685 
	C417.317047,758.945862 419.932861,756.964111 424.175812,756.229004 
	C444.298553,752.742554 464.376007,748.995361 484.478455,745.390747 
	C489.197601,744.544495 493.943909,743.838196 498.692383,743.172180 
	C501.022003,742.845459 502.455811,743.223511 503.146667,746.268005 
	C508.287750,768.924561 513.690002,791.522278 519.101074,814.116760 
	C521.667847,824.834473 523.397888,835.916077 527.432068,846.067810 
	C530.746887,854.409363 526.437012,859.448181 522.998657,865.317017 
	C518.318176,873.305847 513.376282,881.141418 508.558136,889.049866 
	C503.702148,897.020447 498.835052,904.984558 494.028778,912.985107 
	C492.693573,915.207764 491.556976,917.549744 489.964813,919.870361 
z"/>
<path fill="#002753" opacity="1.000000" stroke="none" 
	d="
M226.995758,719.719116 
	C226.330658,704.258301 225.656433,689.224915 225.013947,674.190186 
	C224.089035,652.546082 223.150223,630.902527 222.289703,609.255859 
	C221.790878,596.707642 221.434387,584.153809 221.012817,571.602478 
	C220.585449,558.879028 220.327881,546.146240 219.631546,533.437500 
	C219.402206,529.251892 220.598923,528.121643 224.763885,527.836914 
	C247.909363,526.254944 271.028992,524.296692 294.161652,522.522095 
	C297.271942,522.283447 298.694305,523.513733 297.986023,526.997864 
	C293.264069,550.224487 288.598816,573.463196 284.051605,596.724609 
	C280.595581,614.404114 277.463074,632.147095 273.961792,649.817261 
	C270.654419,666.509216 266.973785,683.126953 263.609283,699.807922 
	C261.258087,711.465210 259.219940,723.185242 256.938019,734.856934 
	C254.435165,747.658569 251.718979,760.419067 249.307312,773.237366 
	C248.686432,776.537476 246.953796,778.115173 243.910431,778.859863 
	C240.371353,779.725830 236.874557,780.763123 233.350677,781.692993 
	C230.513489,782.441711 229.054901,781.740417 228.958054,778.380920 
	C228.398376,758.966553 227.671249,739.557068 226.995758,719.719116 
z"/>
<path fill="#002753" opacity="1.000000" stroke="none" 
	d="
M902.019165,283.972473 
	C903.233948,282.382629 904.306702,281.131744 905.379456,279.880859 
	C905.850403,280.053894 906.321411,280.226929 906.792358,280.399994 
	C908.345642,338.660187 909.898926,396.920380 911.469727,455.838470 
	C902.163269,456.582520 893.312927,457.299469 884.460999,457.995911 
	C863.859375,459.616791 843.256165,461.216827 822.655396,462.847778 
	C814.086304,463.526245 805.525940,464.322266 796.950928,464.909668 
	C795.596191,465.002472 793.571350,464.682312 792.979309,463.799713 
	C792.430847,462.982208 793.044373,460.949371 793.733459,459.805359 
	C800.134399,449.177490 806.656799,438.622772 813.154907,428.053467 
	C820.930847,415.405579 828.720215,402.765991 836.498413,390.119476 
	C841.187195,382.495880 845.855286,374.859467 850.551575,367.240448 
	C858.253235,354.745514 865.948120,342.246216 873.686951,329.774292 
	C881.355957,317.414948 889.082581,305.091339 896.768188,292.742279 
	C898.504333,289.952637 900.175903,287.122803 902.019165,283.972473 
z"/>
<path fill="#004887" opacity="1.000000" stroke="none" 
	d="
M305.732971,1167.270264 
	C323.018341,1175.149536 340.080444,1182.661133 357.027130,1190.424805 
	C373.458954,1197.952759 389.760620,1205.764404 406.140625,1213.406128 
	C422.853577,1221.202881 439.550873,1229.036133 456.349518,1236.644775 
	C460.448029,1238.500977 460.751099,1240.681885 458.848114,1244.363892 
	C455.900513,1250.067017 453.267151,1255.936523 450.627045,1261.792603 
	C449.259918,1264.825195 447.513733,1265.596436 444.344482,1264.125366 
	C428.595947,1256.815796 412.777405,1249.656982 396.978485,1242.455933 
	C385.008728,1237.000366 373.000946,1231.627319 361.064392,1226.100098 
	C341.661865,1217.115967 322.297882,1208.048340 302.928619,1198.992432 
	C282.301788,1189.348755 261.742798,1179.557983 241.052383,1170.053101 
	C221.993347,1161.297485 202.777451,1152.883911 183.673187,1144.225830 
	C173.764481,1139.735229 163.971527,1134.989624 154.075790,1130.469849 
	C150.941101,1129.038086 150.439331,1127.205078 151.905197,1124.139893 
	C154.888763,1117.901123 157.647385,1111.552124 160.386154,1105.200073 
	C161.591217,1102.405029 162.966843,1101.468140 166.105316,1102.916504 
	C177.899445,1108.359131 189.876129,1113.405640 201.679092,1118.829834 
	C214.093369,1124.535034 226.315979,1130.658691 238.749588,1136.319946 
	C258.803131,1145.450806 278.970337,1154.331787 299.061493,1163.380737 
	C301.287781,1164.383301 303.331024,1165.792358 305.732971,1167.270264 
z"/>
<path fill="#002753" opacity="1.000000" stroke="none" 
	d="
M369.610291,767.063232 
	C379.096039,765.236694 388.221222,763.440857 398.598206,761.398682 
	C383.409241,812.585999 368.697510,862.164917 353.985809,911.743835 
	C353.496155,911.842346 353.006500,911.940857 352.516846,912.039368 
	C350.128143,908.018616 347.553864,904.095398 345.381104,899.961182 
	C332.072540,874.637634 318.806549,849.291382 305.628235,823.899841 
	C299.466888,812.028381 293.623779,799.991577 287.442688,788.130676 
	C285.548615,784.496155 286.862610,783.582581 290.298584,782.904602 
	C316.630371,777.709167 342.935944,772.380920 369.610291,767.063232 
z"/>
<path fill="#002753" opacity="1.000000" stroke="none" 
	d="
M454.684570,638.580811 
	C459.728668,621.925232 464.635864,605.576904 469.543030,589.228638 
	C470.303162,589.308716 471.063293,589.388855 471.823425,589.468933 
	C473.167786,596.177429 474.524750,602.883362 475.854462,609.594788 
	C482.805664,644.679443 489.754974,679.764404 496.688507,714.852600 
	C497.362762,718.264832 497.832367,721.719177 498.566010,725.117493 
	C499.229492,728.190674 497.651733,729.473694 495.011688,729.918213 
	C474.448151,733.380798 453.878510,736.806763 433.312195,740.252869 
	C432.006683,740.471619 430.722260,740.829407 429.412201,741.004211 
	C427.848907,741.212891 426.268585,741.293884 424.695618,741.430176 
	C424.764221,739.708252 424.519653,737.902771 424.953400,736.278381 
	C427.358978,727.269165 429.832611,718.275391 432.469879,709.331543 
	C435.269135,699.838196 438.234833,690.393127 441.204071,680.950989 
	C445.616730,666.918945 450.096466,652.908020 454.684570,638.580811 
z"/>
<path fill="#002753" opacity="1.000000" stroke="none" 
	d="
M902.745789,646.205200 
	C920.978699,648.459351 938.850708,650.618958 956.712219,652.861389 
	C975.786926,655.256042 994.850891,657.736145 1013.921448,660.163696 
	C1019.150696,660.829285 1024.404663,661.327271 1029.608643,662.147827 
	C1031.072510,662.378601 1032.398926,663.482056 1033.788330,664.185242 
	C1033.014526,665.369690 1032.502686,667.174988 1031.421509,667.631470 
	C1026.652832,669.645081 1021.850769,672.070068 1016.823059,672.891602 
	C998.936768,675.814148 980.981323,678.363342 962.999573,680.639038 
	C941.838623,683.317200 920.627747,685.606506 899.429077,687.979919 
	C887.106628,689.359436 874.770630,690.624756 862.429138,691.822021 
	C859.654297,692.091187 856.830994,691.861572 852.758850,691.861572 
	C854.419495,689.215149 855.433411,687.258667 856.758484,685.542419 
	C866.460815,672.975525 876.308350,660.519592 885.906250,647.873901 
	C888.022522,645.085693 890.144653,644.137451 893.514099,644.942078 
	C896.400757,645.631470 899.419739,645.766724 902.745789,646.205200 
z"/>
<path fill="#002753" opacity="1.000000" stroke="none" 
	d="
M600.219177,736.093994 
	C594.471130,745.575378 588.985535,754.793335 583.448853,763.980530 
	C575.512024,777.150391 567.538940,790.298401 559.579285,803.454590 
	C554.108276,812.497498 548.641602,821.543030 543.152832,830.575073 
	C542.343994,831.905945 541.423706,833.169006 540.554993,834.463440 
	C540.011841,834.440857 539.468750,834.418274 538.925598,834.395630 
	C536.797913,825.705750 534.626526,817.026367 532.552185,808.323730 
	C528.904175,793.019470 525.296814,777.705444 521.712158,762.386230 
	C520.398193,756.770935 519.426697,751.064758 517.871521,745.519958 
	C516.630432,741.095154 518.876587,739.717896 522.457458,739.241821 
	C540.301636,736.869629 558.149658,734.524536 576.006775,732.252319 
	C584.683044,731.148376 593.382202,730.224609 602.848022,729.129333 
	C601.935181,731.684509 601.197021,733.750671 600.219177,736.093994 
z"/>
<path fill="#002753" opacity="1.000000" stroke="none" 
	d="
M546.888367,941.898438 
	C527.947632,946.826233 509.396545,951.658630 490.845459,956.490967 
	C490.408539,955.887207 489.971619,955.283386 489.534698,954.679626 
	C504.639557,930.054993 519.744446,905.430359 534.849304,880.805725 
	C535.463623,880.985107 536.077942,881.164490 536.692261,881.343872 
	C539.036926,889.212280 541.443665,897.062927 543.710327,904.953735 
	C546.454834,914.508362 549.020630,924.114319 551.779846,933.664612 
	C553.572266,939.868835 553.665039,939.842041 546.888367,941.898438 
z"/>
<path fill="#002550" opacity="1.000000" stroke="none" 
	d="
M233.570602,849.852661 
	C232.526031,846.826904 231.298782,843.730286 231.161224,840.585938 
	C230.597687,827.704468 230.438004,814.805847 229.965454,801.919495 
	C229.837814,798.438782 230.675369,796.763062 234.513367,795.843079 
	C244.848572,793.365601 245.289932,793.181458 243.450043,803.474548 
	C240.678940,818.977295 237.115555,834.338440 233.570602,849.852661 
z"/>
<path fill="#000000" opacity="1.000000" stroke="none" 
	d="
M223.763382,1074.196533 
	C215.896896,1060.447266 212.163773,1045.835205 210.713455,1030.529419 
	C209.573685,1018.500916 208.547989,1006.453735 207.024658,994.471619 
	C205.399689,981.690063 205.143707,968.908386 207.095383,956.232483 
	C209.342606,941.636841 213.617401,927.715149 227.267303,919.363037 
	C236.057693,913.984375 245.617126,914.008728 255.446930,916.570251 
	C273.234314,921.205383 287.272156,932.003235 300.780762,943.672363 
	C308.221069,950.099487 315.677521,956.559387 322.580078,963.544617 
	C331.041168,972.107117 339.045105,981.135132 346.941345,990.227051 
	C348.099548,991.560608 348.405731,994.712341 347.683228,996.421204 
	C343.816284,1005.567688 344.019653,1015.137512 343.754395,1024.741211 
	C343.617188,1029.707275 342.377533,1034.633057 342.028839,1039.604736 
	C341.106628,1052.752686 337.729431,1065.409058 332.882874,1077.463257 
	C330.219757,1084.087036 325.530273,1090.297974 320.488403,1095.458130 
	C314.657043,1101.426270 308.101868,1106.738037 299.477692,1109.204834 
	C289.159668,1112.156128 280.755890,1106.506348 276.345123,1098.444214 
	C272.881409,1092.113159 270.861969,1085.135742 272.029694,1077.700073 
	C272.272034,1076.157104 272.935547,1074.680298 273.520630,1072.801636 
	C279.065887,1075.375732 284.154724,1077.724976 289.232025,1080.098755 
	C293.531219,1082.108765 295.142181,1081.323364 296.158356,1076.733276 
	C296.758911,1074.020630 297.472076,1071.332397 298.050507,1068.615234 
	C299.893829,1059.956909 299.692841,1059.611206 291.550659,1055.941650 
	C288.989655,1054.787354 286.570679,1053.094727 283.894470,1052.464355 
	C277.677612,1050.999756 278.719299,1046.865479 279.757538,1042.596313 
	C280.030151,1041.475098 280.632019,1040.430664 280.875153,1039.306030 
	C283.226196,1028.431519 283.221100,1028.415283 269.877686,1020.989868 
	C268.449158,1020.194946 266.922058,1019.387268 265.345367,1019.088379 
	C262.113678,1018.475830 259.933868,1019.179382 259.935425,1023.335754 
	C259.936951,1027.509277 259.311768,1031.700073 258.728424,1035.850586 
	C258.376617,1038.354126 257.254547,1039.767700 254.338608,1038.137939 
	C249.062073,1035.188843 243.508636,1032.715820 238.343933,1029.592529 
	C234.853714,1027.481689 233.084457,1028.777710 232.099518,1031.886719 
	C230.828201,1035.899658 229.949554,1040.040039 228.971634,1044.142212 
	C227.776337,1049.156250 230.789261,1051.955933 234.638763,1053.925293 
	C239.306885,1056.313477 244.300583,1058.083496 248.881195,1060.613892 
	C250.363876,1061.432983 251.600113,1063.702881 251.898788,1065.485229 
	C253.134918,1072.861572 249.822220,1078.952759 245.072144,1084.055298 
	C242.106430,1087.240967 233.248901,1085.265381 229.162292,1080.992188 
	C227.256378,1078.999146 225.718674,1076.653931 223.763382,1074.196533 
z"/>
<path fill="#000000" opacity="1.000000" stroke="none" 
	d="
M363.002808,1131.330933 
	C360.245850,1119.501831 362.894775,1108.288696 366.159607,1097.660278 
	C368.333557,1090.583008 373.892761,1084.536499 377.986298,1078.060059 
	C384.292328,1068.083130 391.782227,1059.128540 400.713898,1051.358032 
	C405.612640,1047.096191 410.236908,1042.517700 414.951752,1038.046997 
	C415.893402,1037.154175 417.081665,1036.242310 417.483215,1035.102051 
	C421.706512,1023.110535 431.879669,1025.883301 440.496490,1026.318359 
	C453.625092,1026.981323 466.731171,1028.452759 479.788086,1030.058350 
	C490.407440,1031.364258 501.138153,1032.604492 511.460999,1035.264893 
	C523.796997,1038.443970 535.760010,1042.735352 545.536255,1051.895264 
	C555.664124,1061.384644 559.094360,1072.213623 555.692383,1085.560059 
	C551.921082,1100.355347 542.657410,1111.442017 531.819763,1121.448486 
	C527.636169,1125.311401 523.240784,1129.040894 518.527649,1132.216064 
	C504.990723,1141.336060 491.405365,1150.406616 477.514008,1158.969238 
	C469.534851,1163.887573 461.233429,1168.594727 452.511627,1171.908691 
	C443.876770,1175.189331 434.565460,1177.471436 425.496979,1172.108276 
	C420.327484,1169.050903 418.817474,1164.334839 421.554443,1159.011475 
	C422.308533,1157.544800 422.904144,1155.995239 423.680023,1154.541016 
	C428.055267,1146.341309 431.922211,1145.174194 440.190002,1148.997803 
	C444.325623,1150.910522 448.668671,1152.428345 453.017487,1153.811890 
	C457.785675,1155.328613 460.871216,1152.409058 463.436981,1149.012085 
	C464.891876,1147.085815 465.928192,1144.837402 467.101288,1142.705566 
	C470.176849,1137.116333 468.993652,1134.848022 462.885162,1133.003784 
	C457.207672,1131.289551 451.705017,1128.996338 445.347290,1126.673828 
	C450.514221,1120.612183 455.138641,1115.186890 460.686584,1108.678223 
	C453.832001,1105.756226 448.370636,1103.060425 442.652802,1101.120728 
	C438.875366,1099.839233 436.181519,1102.444580 433.907440,1105.343628 
	C431.397369,1108.543335 428.936646,1111.861694 425.946899,1114.567749 
	C424.666321,1115.726685 421.829681,1116.260132 420.179626,1115.689941 
	C416.711395,1114.491577 413.460815,1112.537354 410.303436,1110.596436 
	C406.145996,1108.040771 402.642120,1108.506470 399.447510,1112.139648 
	C397.074371,1114.838379 394.557983,1117.415039 392.257721,1120.173096 
	C389.173462,1123.871094 390.168396,1126.931763 394.671387,1128.901489 
	C399.738495,1131.118042 404.697876,1133.580933 409.744049,1135.955444 
	C405.330750,1145.322876 396.741364,1147.470703 388.468384,1149.947266 
	C381.272736,1152.101562 374.164581,1151.242676 369.326630,1145.342285 
	C366.255981,1141.597290 365.063446,1136.312500 363.002808,1131.330933 
z"/>
</svg>